# AST/ASF file generated using VICON BodyLanguage
# -----------------------------------------------
:version 1.10
:name VICON
:units
  mass 1.0
  length 0.45
  angle deg
:documentation
   .ast/.asf automatically generated from VICON data using
   VICON BodyBuilder and BodyLanguage model FoxedUp or BRILLIANT.MOD
:root
   order TX TY TZ RX RY RZ
   axis XYZ
   position 0 0 0  
   orientation 0 -0 0 
:bonedata
  begin
     id 1 
     name lhipjoint
     direction 0.432694 -0.693742 0.575759 
     length 2.19277 
     axis 0 -0 0  XYZ
  end
  begin
     id 2 
     name lfemur
     direction 0.34202 -0.939693 0  
     length 6.69022  
     axis 0 -0 20  XYZ
    dof rx ry rz
    limits (-160.0 20.0)
           (-70.0 70.0)
           (-60.0 70.0)
  end
  begin
     id 3 
     name ltibia
     direction 0.34202 -0.939693 0   
     length 6.50337   
     axis 0 -0 20   XYZ
    dof rx
    limits (-10.0 170.0)
  end
  begin
     id 4 
     name lfoot
     direction 0.158999 -0.435969 0.885805   
     length 2.70564   
     axis -90 -1.13533e-015 20   XYZ
    dof rx rz
    limits (-45.0 90.0)
           (-70.0 20.0)
  end
  begin
     id 5 
     name ltoes
     direction -0.00592919 0.00964381 0.999936   
     length 1.29929   
     axis -90 -1.13533e-015 20   XYZ
    dof rx
    limits (-90.0 20.0)
  end
  begin
     id 6 
     name rhipjoint
     direction -0.414359 -0.700339 0.581234   
     length 2.17212  
     axis 0 -0 0  XYZ 
  end
  begin
     id 7 
     name rfemur
     direction -0.34202 -0.939693 0   
     length 7.17659   
     axis 0 -0 -20   XYZ
    dof rx ry rz
    limits (-160.0 20.0)
           (-70.0 70.0)
           (-70.0 60.0)
  end
  begin
     id 8 
     name rtibia
     direction -0.34202 -0.939693 0   
     length 6.36669   
     axis 0 -0 -20   XYZ
    dof rx
    limits (-10.0 170.0)
 end
 begin
     id 9 
     name rfoot
     direction -0.137064 -0.37658 0.916188   
     length 2.22351  
     axis -90 1.13533e-015 -20   XYZ
    dof rx rz
    limits (-45.0 90.0)
           (-20.0 70.0)
  end
  begin
     id 10 
     name rtoes
     direction -0.000784077 -0.00289101 0.999996   
     length 1.09522   
     axis -90 1.13533e-015 -20   XYZ
    dof rx
    limits (-90.0 20.0)
  end
  begin
     id 11 
     name lowerback
     direction -0.0176242 0.984912 -0.172157   
     length 1.65301   
     axis 0 -0 0   XYZ
    dof rx ry rz
    limits (-20.0 45.0)
           (-30.0 30.0)
           (-30.0 30.0)
  end
  begin
     id 12 
     name upperback
     direction -0.00218128 0.998776 -0.0494072   
     length 1.67776   
     axis 0 -0 0   XYZ
    dof rx ry rz
    limits (-20.0 45.0)
           (-30.0 30.0)
           (-30.0 30.0)
  end
  begin
     id 13 
     name thorax
     direction 0.00544186 0.999658 0.0255711   
     length 1.72293   
     axis 0 -0 0   XYZ
    dof rx ry rz
    limits (-20.0 45.0)
           (-30.0 30.0)
           (-30.0 30.0)
  end
  begin
     id 14 
     name lowerneck
     direction -0.105325 0.983841 0.144785   
     length 2.14226   
     axis 0 -0 0   XYZ
    dof rx ry rz
    limits (-20.0 45.0)
           (-30.0 30.0)
           (-30.0 30.0)
  end
  begin
     id 15 
     name upperneck
     direction 0.0547957 0.988053 -0.144041   
     length 2.17508   
     axis 0 -0 0   XYZ
    dof rx ry rz
    limits (-20.0 45.0)
           (-30.0 30.0)
           (-30.0 30.0)
  end
  begin
     id 16
     name head
     direction 0.0247488 0.997534 -0.0656813  
     length 2.20048  
     axis 0 -0 0   XYZ
    dof rx ry rz
    limits (-20.0 45.0)
           (-30.0 30.0)
           (-30.0 30.0)
  end
  begin
     id 17 
     name lclavicle
     direction 0.820559 0.567247 -0.0701026  
     length 4.09615  
     axis 0 -0 0   XYZ
    dof ry rz
    limits (-20.0 10.0)
           (0.0 20.0)
  end
  begin
     id 18 
     name lhumerus
     direction 0.999977 -0.0067566 -9.96392e-005   
     length 4.59333   
     axis -180 -30 -90   XYZ
    dof rx ry rz
    limits (-60.0 90.0)
           (-90.0 90.0)
           (-90.0 90.0)
  end
  begin
     id 19
     name lradius
     direction 1 -4.48982e-011 -2.53425e-027   
     length 2.81151   
     axis -180 -30 -90   XYZ
    dof rx
    limits (-10.0 170.0)
  end
  begin
     id 20
     name lwrist
     direction 1 -4.48939e-011 -7.39254e-028   
     length 1.40576   
     axis 2.56395e-016 90 90   XYZ
    dof ry
    limits (-180.0 0.0)
 end
  begin
     id 21 
     name lhand
     direction 1 -4.48939e-011 -1.47851e-027   
     length 0.895651   
     axis 9.43423e-016 90 90   XYZ
    dof rx rz
    limits (-90.0 90.0)
           (-45.0 45.0)
  end
  begin
     id 22 
     name lfingers
     direction 1 -4.48978e-011 -2.95702e-027   
     length 0.722097   
     axis 1.88685e-015 90 90   XYZ
    dof rx
    limits (0.0 90.0)
  end
  begin
     id 23
     name lthumb
     direction 0.707107 -6.34931e-011 0.707107   
     length 1.03679   
     axis -90 45 -9.86935e-015   XYZ
    dof rx rz
    limits (-45.0 45.0)
           (-45.0 45.0)
  end
  begin
     id 24 
     name rclavicle
     direction -0.831414 0.553102 -0.0531864   
     length 4.24872  
     axis 0 -0 0   XYZ 
    dof ry rz
    limits (-10.0 20.0)
           (-20.0 0.0)
  end
  begin
     id 25 
     name rhumerus
     direction -0.999916 -0.000939607 0.0129331  
     length 4.74834   
     axis -180 30 90   XYZ
    dof rx ry rz
    limits (-90.0 60.0)
           (-90.0 90.0)
           (-90.0 90.0)
  end
  begin
     id 26 
     name rradius
     direction -1 -4.48956e-011 -1.31752e-027   
     length 2.79907   
     axis -180 30 90   XYZ
    dof rx
    limits (-10.0 170.0)
  end
  begin
     id 27 
     name rwrist
     direction -1 -4.4897e-011 -7.39254e-028   
     length 1.39954   
     axis 2.56395e-016 -90 -90   XYZ
    dof ry
    limits (-180.0 0.0)
  end
  begin
     id 28
     name rhand
     direction -0.999997 -0.00250697 0.000800838   
     length 0.953304   
     axis 9.43423e-016 -90 -90   XYZ
    dof rx rz
    limits (-90.0 90.0)
           (-45.0 45.0)
  end
  begin
     id 29
     name rfingers
     direction -1 -4.48954e-011 -2.95702e-027   
     length 0.763342   
     axis 1.88685e-015 -90 -90   XYZ
    dof rx
    limits (0.0 90.0)
  end
  begin
     id 30
     name rthumb
     direction -0.709701 -0.00217037 0.7045   
     length 1.10115   
     axis -90 -45 9.86935e-015   XYZ
    dof rx rz
    limits (-45.0 45.0)
           (-45.0 45.0)
  end
:hierarchy
  begin
    root lhipjoint rhipjoint lowerback
    lhipjoint lfemur
    lfemur ltibia
    ltibia lfoot
    lfoot ltoes
    rhipjoint rfemur
    rfemur rtibia
    rtibia rfoot
    rfoot rtoes
    lowerback upperback
    upperback thorax
    thorax lowerneck lclavicle rclavicle
    lowerneck upperneck
    upperneck head
    lclavicle lhumerus
    lhumerus lradius
    lradius lwrist
    lwrist lhand lthumb
    lhand lfingers
    rclavicle rhumerus
    rhumerus rradius
    rradius rwrist
    rwrist rhand rthumb
    rhand rfingers
  end

#!OML:ASF G:\ViconDB\ViconDB\414\test\team2\shane.ASF
:FULLY-SPECIFIED
:DEGREES
17
root 8.21374 15.9981 -26.2492 4.74927 16.7946 -4.31912
lowerback 13.4644 -4.50071 -4.87176
upperback 3.33567 -6.45688 2.86405
thorax -3.10201 -3.19163 6.74417
lowerneck -17.024 -3.51926 -10.1969
upperneck 17.7559 -5.00492 13.2501
head 8.97122 -1.68916 5.64174
rclavicle -6.16232e-015 1.11319e-014
rhumerus -53.3336 -3.77008 -66.3883
rradius 25.0531
rwrist 46.4091
rhand -30.537 -11.4691
rfingers 7.12502
rthumb -3.83604 -41.4143
lclavicle 1.05157e-013 -1.55052e-014
lhumerus -20.4975 -28.3947 103.462
lradius 70.3963
lwrist -15.2643
lhand -48.3463 7.36694
lfingers 7.12502
lthumb -21.0011 36.2499
rfemur -39.3802 -21.6487 22.4535
rtibia 59.944
rfoot -23.9268 1.44708
rtoes -14.177
lfemur 11.298 12.8213 -5.62291
ltibia 16.9598
lfoot -36.6973 -3.63202
ltoes -5.52193
18
root 8.22964 15.9513 -26.0822 5.14521 16.8421 -4.0549
lowerback 13.4355 -4.57422 -4.95401
upperback 3.36636 -6.56102 2.91734
thorax -3.02217 -3.24769 6.85469
lowerneck -16.8033 -3.51585 -10.3191
upperneck 17.4305 -4.93372 13.153
head 8.81089 -1.68434 5.626
rclavicle 1.59028e-014 1.35174e-014
rhumerus -55.7337 -5.20253 -62.6422
rradius 23.8165
rwrist 47.1226
rhand -30.7152 -11.3266
rfingers 7.12502
rthumb -4.0081 -41.2686
lclavicle 1.59028e-014 1.35174e-014
lhumerus -19.4101 -28.8609 103.326
lradius 72.368
lwrist -16.0177
lhand -48.0569 6.79486
lfingers 7.12502
lthumb -20.7231 35.7084
rfemur -40.4373 -21.8592 22.775
rtibia 60.0122
rfoot -23.9667 1.42399
rtoes -14.211
lfemur 12.1463 12.8272 -5.68231
ltibia 15.8104
lfoot -36.5023 -3.56649
ltoes -6.45743
19
root 8.24396 15.8988 -25.9109 5.46647 16.9028 -3.78083
lowerback 13.4896 -4.6779 -5.09068
upperback 3.44351 -6.71385 2.98535
thorax -2.92169 -3.33015 7.02298
lowerneck -16.7973 -3.4789 -10.5365
upperneck 17.2909 -4.80809 13.1356
head 8.75039 -1.64327 5.66937
rclavicle 1.59028e-014 1.35174e-014
rhumerus -55.7337 -5.20253 -62.6422
rradius 23.8165
rwrist 47.1226
rhand -30.7152 -11.3266
rfingers 7.12502
rthumb -4.0081 -41.2686
lclavicle -1.64991e-014 1.47101e-014
lhumerus -18.1218 -29.4229 103.048
lradius 74.1342
lwrist -16.316
lhand -48.0331 6.23035
lfingers 7.12502
lthumb -20.7002 35.1464
rfemur -41.3756 -22.1403 23.0436
rtibia 60.1072
rfoot -24.0652 1.54076
rtoes -14.0919
lfemur 13.0851 12.4921 -5.81683
ltibia 14.6781
lfoot -36.3757 -3.05291
ltoes -7.53707
20
root 8.25284 15.8463 -25.7334 5.77695 16.977 -3.57347
lowerback 13.4974 -4.74847 -5.13915
upperback 3.54035 -6.80771 3.08321
thorax -2.79024 -3.38573 7.15959
lowerneck -16.7799 -3.5223 -10.8262
upperneck 17.0878 -4.77985 13.159
head 8.68262 -1.64929 5.72507
rclavicle 1.59028e-014 1.35174e-014
rhumerus -55.7337 -5.20253 -62.6422
rradius 23.8165
rwrist 47.1226
rhand -30.7152 -11.3266
rfingers 7.12502
rthumb -4.0081 -41.2686
lclavicle -1.0297e-013 2.74323e-014
lhumerus -16.7049 -29.977 102.723
lradius 75.7522
lwrist -16.816
lhand -47.8778 5.93934
lfingers 7.12502
lthumb -20.551 34.8716
rfemur -42.2881 -22.4513 23.4677
rtibia 60.2703
rfoot -24.2805 1.42605
rtoes -14.4883
lfemur 14.1089 12.4393 -5.7219
ltibia 13.4342
lfoot -36.1717 -2.87073
ltoes -8.59922
21
root 8.26568 15.7878 -25.5537 6.17357 17.0848 -3.43473
lowerback 13.398 -4.83346 -5.04738
upperback 3.59675 -6.89858 3.18593
thorax -2.66034 -3.43893 7.21303
lowerneck -16.7271 -3.52866 -10.9713
upperneck 16.9169 -4.72001 13.067
head 8.60829 -1.64258 5.71932
rclavicle 1.59028e-014 1.35174e-014
rhumerus -55.7337 -5.20253 -62.6422
rradius 23.8165
rwrist 47.1226
rhand -30.7152 -11.3266
rfingers 7.12502
rthumb -4.0081 -41.2686
lclavicle 7.4743e-014 -5.64548e-014
lhumerus -15.2259 -30.5547 102.232
lradius 77.1852
lwrist -17.3699
lhand -47.9412 5.7108
lfingers 7.12502
lthumb -20.6119 34.6364
rfemur -43.2937 -22.9206 24.067
rtibia 60.4819
rfoot -24.325 1.34444
rtoes -14.5273
lfemur 15.0704 12.5977 -5.46191
ltibia 12.1442
lfoot -35.8266 -3.26109
ltoes -9.67504
22
root 8.27922 15.7249 -25.3712 6.45674 17.1711 -3.24055
lowerback 13.4454 -4.89215 -4.98539
upperback 3.65865 -6.96359 3.28477
thorax -2.60466 -3.47578 7.29219
lowerneck -16.6074 -3.53046 -11.1761
upperneck 16.7564 -4.65255 13.0044
head 8.52654 -1.63511 5.73562
rclavicle 1.59028e-014 1.35174e-014
rhumerus -55.7337 -5.20253 -62.6422
rradius 23.8165
rwrist 47.1226
rhand -30.7152 -11.3266
rfingers 7.12502
rthumb -4.0081 -41.2686
lclavicle 7.4743e-014 -5.64548e-014
lhumerus -15.2259 -30.5547 102.232
lradius 77.1852
lwrist -17.3699
lhand -47.9412 5.7108
lfingers 7.12502
lthumb -20.6119 34.6364
rfemur -44.0644 -23.423 24.515
rtibia 60.781
rfoot -24.3868 1.38475
rtoes -14.0355
lfemur 16.1366 12.5093 -5.30499
ltibia 10.9037
lfoot -35.5444 -3.27039
ltoes -11.0099
23
root 8.29551 15.6575 -25.1842 6.76729 17.2632 -3.0134
lowerback 13.5193 -4.9813 -4.85752
upperback 3.70669 -7.06096 3.37421
thorax -2.58237 -3.52656 7.33257
lowerneck -16.5238 -3.50843 -11.1527
upperneck 16.5367 -4.53519 12.6141
head 8.41116 -1.61937 5.60031
rclavicle 1.59028e-014 1.35174e-014
rhumerus -55.7337 -5.20253 -62.6422
rradius 23.8165
rwrist 47.1226
rhand -30.7152 -11.3266
rfingers 7.12502
rthumb -4.0081 -41.2686
lclavicle 7.4743e-014 -5.64548e-014
lhumerus -15.2259 -30.5547 102.232
lradius 77.1852
lwrist -17.3699
lhand -47.9412 5.7108
lfingers 7.12502
lthumb -20.6119 34.6364
rfemur -44.8781 -24.0798 24.9711
rtibia 61.2333
rfoot -24.3329 1.46822
rtoes -14.1896
lfemur 17.1757 12.0747 -5.29151
ltibia 9.69782
lfoot -35.2637 -2.80212
ltoes -12.4667
24
root 8.31133 15.5911 -24.9932 7.18625 17.3281 -2.67514
lowerback 13.5438 -5.04148 -4.91654
upperback 3.68715 -7.14287 3.52723
thorax -2.57464 -3.56873 7.54269
lowerneck -16.4794 -3.51854 -11.5015
upperneck 16.5048 -4.44643 12.543
head 8.38655 -1.60814 5.64531
rclavicle 1.59028e-014 1.35174e-014
rhumerus -55.7337 -5.20253 -62.6422
rradius 23.8165
rwrist 47.1226
rhand -30.7152 -11.3266
rfingers 7.12502
rthumb -4.0081 -41.2686
lclavicle 7.4743e-014 -5.64548e-014
lhumerus -15.2259 -30.5547 102.232
lradius 77.1852
lwrist -17.3699
lhand -47.9412 5.7108
lfingers 7.12502
lthumb -20.6119 34.6364
rfemur -45.6627 -24.6546 25.2961
rtibia 61.9633
rfoot -24.2862 1.63333
rtoes -13.2853
lfemur 18.1922 11.6412 -5.34941
ltibia 8.44734
lfoot -34.7013 -2.95707
ltoes -13.4456
25
root 8.32815 15.535 -24.7967 7.60006 17.4454 -2.4425
lowerback 13.467 -5.13918 -4.71701
upperback 3.76714 -7.23507 3.67426
thorax -2.43901 -3.62337 7.58342
lowerneck -16.6195 -3.50276 -11.5963
upperneck 16.3881 -4.31647 12.2552
head 8.35052 -1.57611 5.57255
rclavicle 1.59028e-014 1.35174e-014
rhumerus -55.7337 -5.20253 -62.6422
rradius 23.8165
rwrist 47.1226
rhand -30.7152 -11.3266
rfingers 7.12502
rthumb -4.0081 -41.2686
lclavicle 6.89783e-014 -3.93594e-014
lhumerus -9.19347 -32.1992 99.8725
lradius 80.6167
lwrist -20.0281
lhand -47.9872 4.87046
lfingers 7.12502
lthumb -20.6561 33.7913
rfemur -46.3842 -25.2387 25.6521
rtibia 63.0714
rfoot -24.6104 1.13462
rtoes -11.2964
lfemur 19.1069 11.1968 -5.38732
ltibia 7.36221
lfoot -34.3183 -2.78465
ltoes -14.8932
